<svg xmlns="http://www.w3.org/2000/svg" xml:space="preserve"
     style="fill-rule:evenodd;clip-rule:evenodd;stroke-linejoin:round;stroke-miterlimit:2" viewBox="0 0 64 64">
    <path d="M16.292 42.529h9.784v3.332h-9.784zm42.397 0h9.784v3.332h-9.784zM32.598 72.494q-1.184.047-2.372.029H12.142q-1.189.018-2.373-.029v-4.97h22.829zm42.397 0q-1.184.047-2.372.029H54.539q-1.189.018-2.373-.029v-4.97h22.829z" opacity=".4" transform="matrix(.51094 0 0 1 10.336 -26.196)"/>
    <path d="M38.79 30h22.42l-1.46 8h-19.5zM62 25.34v-.136h.025zM54.66 66h-9.32l-1.46-8h12.24z" fill="var(--icon-color-accent, #ff8700)"
          transform="translate(11.161 10.5)scale(.41659)"/>
    <path d="m29.441 34.662.608 3.333.242 1.367v.137q.023.08.033.163v6.665c.044.88-.28 1.74-.891 2.374-.883.88-2.083.959-3.275.959h-9.581c-1.333 0-2.708.02-3.7-.959a3.21 3.21 0 0 1-.882-2.374v-6.665a1 1 0 0 1 .025-.163v-.137l3.307-18.184v-4.845A3.35 3.35 0 0 1 18.66 13h4.999a3.35 3.35 0 0 1 3.333 3.333v4.845l.329 1.82.608 3.333zm6.611-8.331.609-3.333.329-1.82v-.121L37 21h-.01v-4.667A3.35 3.35 0 0 1 40.322 13h5a3.35 3.35 0 0 1 3.332 3.333v4.845l3.3 18.184v.137q.023.08.033.163v6.665c.043.88-.28 1.74-.892 2.374-.883.88-2.083.959-3.274.959h-9.582c-1.333 0-2.707.02-3.699-.959a3.21 3.21 0 0 1-.883-2.374v-6.665a1 1 0 0 1 .025-.163v-.137l.25-1.367.608-3.333zM18.66 16.333v3.332h4.999v-3.332zm-.275 6.665-2.729 14.997h11.007l-2.73-14.997zm8.607 23.3v-4.97H15.327v4.97q.605.046 1.212.029h9.24q.608.018 1.213-.03m21.333-8.303-2.729-14.997h-5.549L37.32 37.995zm-8.003-21.662v3.332h5v-3.332zm8.332 29.965v-4.97H36.99v4.97q.604.047 1.212.029h9.24q.607.018 1.212-.03" fill="currentColor"/>
</svg>